<svg width="64" height="64" viewBox="0 0 64 64" fill="none" xmlns="http://www.w3.org/2000/svg">
  <title>Relay Operations mark</title>
  <desc>Original vector reconstruction of the circular relay fingerprint mark from the Canva logo asset.</desc>
  <rect width="64" height="64" rx="16" fill="#D97706"/>
  <g stroke="#FFF8F0" stroke-width="2.8" stroke-linecap="round" stroke-linejoin="round">
    <circle cx="32" cy="32" r="24.5"/>
    <path d="M8.5 21H32c11.6 0 21 9.4 21 21.0S43.6 63 32 63"/>
    <path d="M8.5 27H30c8.3 0 15 6.7 15 15s-6.7 15-15 15-15-6.7-15-15"/>
    <path d="M8.5 33H28c5 0 9 4 9 9s-4 9-9 9-9-4-9-9"/>
    <path d="M8.5 39H26c1.7 0 3 1.3 3 3s-1.3 3-3 3-3-1.3-3-3"/>
  </g>
</svg>
